<svg width="8" height="8" viewBox="0 0 8 8" fill="none" xmlns="http://www.w3.org/2000/svg">
<rect width="8" height="8" fill="#E2E2E2"/>
<g id="Admin - Client documents">
<path d="M-894 -4722C-894 -4723.1 -893.105 -4724 -892 -4724H1032C1033.1 -4724 1034 -4723.1 1034 -4722V1213C1034 1214.1 1033.1 1215 1032 1215H-892C-893.105 1215 -894 1214.1 -894 1213V-4722Z" fill="#808080"/>
<path d="M-892 -4723H1032V-4725H-892V-4723ZM1033 -4722V1213H1035V-4722H1033ZM1032 1214H-892V1216H1032V1214ZM-893 1213V-4722H-895V1213H-893ZM-892 1214C-892.552 1214 -893 1213.55 -893 1213H-895C-895 1214.66 -893.657 1216 -892 1216V1214ZM1033 1213C1033 1213.55 1032.55 1214 1032 1214V1216C1033.66 1216 1035 1214.66 1035 1213H1033ZM1032 -4723C1032.55 -4723 1033 -4722.55 1033 -4722H1035C1035 -4723.66 1033.66 -4725 1032 -4725V-4723ZM-892 -4725C-893.657 -4725 -895 -4723.66 -895 -4722H-893C-893 -4722.55 -892.552 -4723 -892 -4723V-4725Z" fill="black" fill-opacity="0.1"/>
<g id="Clent Documnets info">
<g clip-path="url(#clip0_22_38)">
<rect x="-794" y="-267" width="1728" height="1382" fill="#FAFAFA"/>
<g id="Frame 629176" filter="url(#filter0_d_22_38)">
<rect x="-638" y="-139" width="1532" height="1221" rx="8" fill="white"/>
<g id="summaryRow">
<g id="Dashboard Summary Card" filter="url(#filter1_d_22_38)">
<rect x="-379" y="-27" width="457" height="155" rx="12" fill="white" shape-rendering="crispEdges"/>
<g id="summaryContainer">
<g id="summaryHeading">
<g id="Status">
<rect x="-12" y="-10" width="74" height="28" rx="8" fill="#25BF17" fill-opacity="0.2"/>
<circle id="Ellipse 9" cx="4" cy="4" r="4" fill="#25BF17"/>
</g>
</g>
</g>
</g>
</g>
</g>
</g>
</g>
</g>
<defs>
<filter id="filter0_d_22_38" x="-648" y="-149" width="1552" height="1241" filterUnits="userSpaceOnUse" color-interpolation-filters="sRGB">
<feFlood flood-opacity="0" result="BackgroundImageFix"/>
<feColorMatrix in="SourceAlpha" type="matrix" values="0 0 0 0 0 0 0 0 0 0 0 0 0 0 0 0 0 0 127 0" result="hardAlpha"/>
<feOffset/>
<feGaussianBlur stdDeviation="5"/>
<feComposite in2="hardAlpha" operator="out"/>
<feColorMatrix type="matrix" values="0 0 0 0 0 0 0 0 0 0 0 0 0 0 0 0 0 0 0.1 0"/>
<feBlend mode="normal" in2="BackgroundImageFix" result="effect1_dropShadow_22_38"/>
<feBlend mode="normal" in="SourceGraphic" in2="effect1_dropShadow_22_38" result="shape"/>
</filter>
<filter id="filter1_d_22_38" x="-389" y="-37" width="477" height="175" filterUnits="userSpaceOnUse" color-interpolation-filters="sRGB">
<feFlood flood-opacity="0" result="BackgroundImageFix"/>
<feColorMatrix in="SourceAlpha" type="matrix" values="0 0 0 0 0 0 0 0 0 0 0 0 0 0 0 0 0 0 127 0" result="hardAlpha"/>
<feOffset/>
<feGaussianBlur stdDeviation="5"/>
<feComposite in2="hardAlpha" operator="out"/>
<feColorMatrix type="matrix" values="0 0 0 0 0 0 0 0 0 0 0 0 0 0 0 0 0 0 0.1 0"/>
<feBlend mode="normal" in2="BackgroundImageFix" result="effect1_dropShadow_22_38"/>
<feBlend mode="normal" in="SourceGraphic" in2="effect1_dropShadow_22_38" result="shape"/>
</filter>
<clipPath id="clip0_22_38">
<rect x="-794" y="-267" width="1728" height="1382" fill="white"/>
</clipPath>
</defs>
</svg>
