<svg width="168" height="116" viewBox="0 0 168 116" fill="none" xmlns="http://www.w3.org/2000/svg">
<g id="Group">
<path id="Vector" d="M143.45 0.029951C151.58 0.889951 159.43 1.71995 167.57 2.58995C162.74 9.23995 158.07 15.6599 153.27 22.2599C152.67 20.9499 152.15 19.83 151.56 18.5599C136.58 25.2199 121.69 31.84 106.7 38.5C106.44 37.54 106.56 36.63 105.47 36.25C105.07 36.11 104.98 35.18 104.69 34.6399C104.32 33.9599 103.89 33.32 103.48 32.6699C103.31 32.3999 103.14 32.13 102.97 31.85C103.31 31.54 103.6 31.28 103.66 31.22C102.67 28.86 101.72 26.67 100.85 24.44C100.66 23.95 100.68 23.35 100.71 22.8099C100.77 21.67 100.89 20.5299 100.98 19.5599C101.66 19.2099 102.46 18.8 103.26 18.39C103.26 18.26 103.26 18.13 103.26 18C102.7 17.8 102.14 17.5999 101.58 17.3999C101.57 17.3199 101.56 17.25 101.55 17.17C102.38 17.21 103.22 17.36 104.04 17.27C104.79 17.19 105.51 16.8799 106.23 16.6199C107.98 15.9999 108.9 15.15 109.41 13.63C108.62 14.18 108 14.78 107.26 15.08C106.56 15.36 105.67 15.5499 105 15.3399C104.67 15.2399 104.66 14.13 104.45 13.24C103.98 13.05 103.36 12.75 103.07 11.77C102.78 10.78 100.4 10.17 99.39 10.58C99.23 10.65 99.04 10.7999 98.98 10.9499C98.58 12.0499 97.88 11.96 96.99 11.42C97.63 10.16 97.11 9.29996 95.84 8.98996C95.38 8.87996 94.78 9.27995 94.11 9.49995C94.51 10.07 94.72 10.37 94.93 10.66C94.87 10.74 94.8 10.82 94.74 10.91C93.94 10.38 93.1 9.88996 92.34 9.29996C91.68 8.78996 91.25 8.44996 90.57 9.37996C90.23 9.83996 89.28 9.80995 88.75 10.1999C88.11 10.6699 87.63 11.3499 87.35 11.6499C87.35 14.7799 87.35 17.7 87.35 20.63C86.13 21.61 84.74 22.7199 83.27 23.8999C83.47 24.1899 83.75 24.61 84.1 25.13C83.66 25.15 83.35 25.17 82.9 25.19C83.11 25.49 83.27 25.7199 83.43 25.9499C83.32 25.9099 83.22 25.87 83.11 25.82C82.83 26.36 82.52 26.8899 82.28 27.4499C81.93 28.2499 81.62 29.0699 81.33 29.8999C81.21 30.2599 81.12 30.67 81.17 31.03C81.19 31.13 81.76 31.15 82.33 31.25C81.92 31.78 81.55 32.2599 81.17 32.7299C80.79 33.2099 80.46 33.7599 79.98 34.1199C79.75 34.2899 79.24 34.0899 78.84 33.8699C77.93 33.9299 77.39 34.1799 77.3 35.4799C77.22 36.5899 76.13 37.6199 75.28 39.0099C74.64 38.2599 74.29 37.85 73.94 37.44C74.01 37.37 74.08 37.31 74.15 37.24C73.72 37.13 73.29 37.0299 72.79 36.8999C72.58 37.1999 72.37 37.51 72.34 37.55C71.39 36.95 70.51 36.42 69.66 35.85C69.37 35.65 69.17 35.33 68.91 35.08C68.37 34.57 67.77 33.6299 67.28 33.6799C66.6 33.7399 66 34.5599 65.36 35.0599C65.41 35.2299 65.45 35.4 65.5 35.58C66.2 35.67 66.9 35.7599 67.6 35.8399C68.28 35.9199 68.89 35.91 68.95 36.94C69 37.8 69.43 38.6299 69.74 39.6499C69.74 40.0399 69.74 40.68 69.74 41.2799C69.59 41.3099 69.21 41.37 68.84 41.44C68.96 41.9 69.06 42.36 69.2 42.82C69.33 43.22 69.5 43.5999 69.7 44.1199C68.93 43.8399 68.44 43.6599 67.95 43.4799C66.65 42.9999 66.38 41.8299 67.29 40.6199C68 39.6799 67.64 38.1099 66.49 37.1699C65.24 36.1499 64.23 36.14 63.36 37.1C63.95 37.63 64.54 38.1599 65.14 38.6999C65.09 38.7199 65.04 38.7399 65 38.7599C64.3 38.4399 63.47 37.71 62.94 37.88C61.84 38.25 60.74 38.9499 59.96 39.8099C59.49 40.3299 59.74 41.45 59.42 42.19C58.89 43.47 58.1 44.6499 57.55 45.9199C57.24 46.6299 57.13 47.4499 57 48.2299C56.97 48.3999 57.29 48.61 57.39 48.83C57.49 49.05 57.65 49.38 57.56 49.52C56.71 50.79 55.78 52.0099 54.95 53.2899C54.83 53.4699 55.03 54.04 55.25 54.21C55.81 54.64 56.47 54.9399 57.26 55.3899C57.6 54.4899 57.93 53.62 58.3 52.66C59.19 53.41 59.08 54.08 58.57 54.85C57.84 55.94 58.03 57.1099 59.12 57.9499C59.58 57.3399 60.03 56.72 60.68 55.85C60.33 56.9 60.09 57.6399 59.85 58.3699C59.97 58.4299 60.1 58.4999 60.22 58.5599C61.19 57.3899 62.76 56.7799 62.83 54.7799C62.87 53.57 63.57 52.4399 65.06 52.1499C65.46 52.0699 65.81 51.61 66.1 51.27C66.15 51.21 65.86 50.6499 65.72 50.6499C65.29 50.6399 64.85 50.7799 64.43 50.8899C64.28 50.93 64.17 51.0999 64.03 51.1499C63.73 51.2699 63.42 51.35 63.4 51.35C62.76 50.87 62.36 50.4499 61.86 50.2299C61.1 49.8899 60.75 49.44 61.07 48.52C61.6 48.57 62.16 48.7 62.71 48.63C63.05 48.59 63.36 48.26 63.69 48.07C63.44 47.75 63.24 47.33 62.91 47.13C62.66 46.98 62.24 47.1299 61.88 47.1499C62.07 46.0799 62.24 45.12 62.42 44.1C62.86 44.16 63.21 44.1999 63.47 44.2299C63.95 43.7999 64.38 43.41 64.85 42.97C65.51 45.15 65.88 47.3 68.76 46.99C68.92 46.66 69.16 46.1699 69.4 45.6699C70.23 46.1499 70.97 46.5899 71.73 47.0099C71.94 47.1299 72.26 47.31 72.41 47.24C73.55 46.67 74.7 47.2199 75.82 47.1199C77.63 46.9499 79.86 47.9599 80.84 49.6999C80.45 49.9399 80.08 50.2399 79.66 50.4299C76.27 51.9599 72.88 53.4599 69.49 54.9799C68.67 55.3499 68.04 55.53 67.87 54.27C67.78 53.56 67.22 53.5399 66.67 53.9499C66.03 54.4299 65.37 54.8699 64.73 55.3399C64.57 55.4599 64.37 55.63 64.35 55.8C64.11 57.77 62.44 58.11 61.03 58.74C57.65 60.25 54.27 61.7599 50.88 63.2599C50.55 63.4099 50.21 63.52 49.73 63.72C49.88 62.72 50.01 61.86 50.14 61C50.37 59.45 50.75 57.8999 50.78 56.3399C50.8 55.2799 50.41 54.1999 50.08 53.1699C50.01 52.9399 49.42 52.8799 48.89 52.6799C48.85 52.3199 48.79 51.77 48.74 51.33C49.24 51.43 49.86 51.73 50.06 51.55C50.89 50.81 50.4 50.03 49.83 49.21C49.47 49.45 49.12 49.6899 48.76 49.9299C48.72 49.9099 48.68 49.88 48.63 49.86C48.99 49.36 49.25 48.5899 49.72 48.4199C50.62 48.0899 50.4 47.6399 50.27 47C49.79 44.66 50.22 42.4099 51.3 40.3399C51.6 39.7699 52.45 39.3499 53.13 39.1399C54.72 38.66 55.34 37.6399 54.9 35.9499C54.84 35.7099 54.92 35.3799 55.04 35.1499C55.59 34.1499 55.28 33.79 54.2 33.91C54.01 33.93 53.8 33.8299 53.6 33.8099C51.98 33.6799 51.89 33.5 52.81 32.0299C52.62 31.8599 52.42 31.69 52.23 31.5C51.76 31.04 50.84 31.0999 50.73 30.1499C50.71 29.9999 49.93 29.87 49.5 29.86C49 29.84 48.5 29.96 47.94 30.03C47.94 29.6 47.94 29.28 47.94 28.78C47.14 28.65 46.27 28.3 45.5 28.44C44.43 28.64 43.36 30.35 43.49 31.05C43.13 31.29 42.81 31.5 42.48 31.72C42.23 31.61 41.74 31.23 41.54 31.35C41.22 31.53 41 32.0299 40.91 32.4299C40.55 34.1999 40.31 36 39.9 37.75C39.76 38.36 39.27 38.9 38.93 39.47C37.67 41.5499 37.17 43.84 37.23 46.24C37.24 46.62 37.81 46.99 38.12 47.36C38.01 47.38 37.62 47.3799 37.59 47.4799C37.23 48.7399 36.92 50.0099 36.62 51.2799C36.61 51.34 36.92 51.5599 36.95 51.5399C37.26 51.3199 37.54 51.0599 37.83 50.8099C37.85 51.0599 37.88 51.37 37.92 51.72C37.54 51.8899 37.17 52.0599 36.8 52.2299C37.18 53.7899 38.12 54.8099 39.5 55.5299C39.98 55.7799 40.46 56.2599 40.67 56.75C41.15 57.9 41.87 58.58 43.11 58.88C43.55 58.99 43.93 59.6399 44.19 60.1199C44.51 60.7099 44.62 61.4 44.9 62.02C45.37 63.06 45.9 64.07 46.46 65.21C44.36 66.15 42.47 67 40.58 67.84C38.01 68.9799 35.42 70.11 32.86 71.27C32.2 71.57 31.93 71.51 31.46 70.8C30.66 69.61 30.5 68.42 30.55 67.07C30.57 66.52 30.2 65.95 30 65.39C29.87 65.39 29.74 65.3999 29.62 65.3999C29.38 67.13 29.14 68.86 28.91 70.6C27.84 68.12 27.1 65.64 27.3 62.99C27.35 62.3 27.79 61.6299 27.8 60.9499C27.82 58.7499 27.53 56.54 27.71 54.36C27.98 51.08 28.52 47.83 28.99 44.57C29.26 42.69 29.63 40.82 29.8 38.9199C26.75 46.7799 26.07 54.9699 26.59 63.3099C22.71 29.8599 49.79 -1.20005 84.52 0.0399455C81.54 0.289946 77.69 0.619955 73.85 0.939955C73.87 1.08995 73.88 1.23995 73.9 1.38995C74.51 1.29995 75.11 1.13995 75.72 1.11995C77.87 1.04995 80.03 0.939951 82.18 1.02995C82.97 1.05995 83.74 1.57995 84.5 1.91995C85.65 2.42995 86.77 3.03995 87.94 3.49995C89.66 4.18995 91.54 4.52995 92.97 5.83995C94.08 6.85995 95.02 5.82995 96.43 5.63995C95.32 5.04995 94.54 4.61995 93.75 4.19995C94.25 3.43995 94.25 3.43996 96.79 3.79996C96.71 3.04996 96.63 2.33996 96.54 1.48996C105.04 3.44996 112.78 7.26995 119.88 12.9499C115.4 15.4699 111.13 17.87 106.85 20.27C106.89 20.36 106.94 20.45 106.98 20.53C108.39 19.92 109.8 19.32 111.2 18.6999C122.03 13.8999 132.85 9.07996 143.69 4.29996C144.68 3.85996 145.05 3.44995 144.44 2.41995C144.1 1.78995 143.87 1.00995 143.45 0.029951ZM57.44 29.0099C58.88 27.8799 59.01 27.5 58.47 25.64C57.59 25.83 56.69 26.1999 55.81 26.1799C53.7 26.1099 52.34 27.17 51.2 28.75C50.82 29.27 51.08 29.49 51.4 29.96C52.63 31.77 55.25 31.7199 56.27 33.75C56.33 33.86 56.56 33.9699 56.69 33.9499C57.86 33.7799 58.12 34.5299 58.15 35.9199C59.96 34.75 61.52 33.7399 63.19 32.6699C63.27 33.8699 62.79 34.41 61.9 34.8C61.19 35.11 60.5 35.57 59.93 36.1C59.74 36.28 59.79 37.02 60 37.24C60.21 37.46 60.9 37.5399 61.15 37.3699C62.41 36.4999 63.63 35.56 64.81 34.57C65.39 34.08 65.43 33.4399 64.83 32.8699C64.29 32.3499 64.27 31.91 64.8 31.3C65.07 30.99 65.02 30.42 65.12 29.96C65 29.93 64.89 29.91 64.77 29.88C64.12 30.53 63.56 31.3099 62.81 31.8099C61.74 32.52 61.18 31.5299 60.5 30.9299C62.22 29.6899 62.47 29.06 61.78 27.05C61.39 25.9 60.3 25.8699 59.12 25.7599C59.45 27.3599 59.01 28.5199 57.44 29.0099ZM80.79 28.5399C80.66 28.4899 80.54 28.4499 80.41 28.3999C79.73 28.9999 79.06 29.59 78.38 30.19C78.62 29.53 79.09 29.07 79.44 28.53C79.62 28.25 79.77 27.65 79.62 27.5C79.04 26.93 78.34 26.4699 77.72 26.0099C78.68 25.6299 80.09 26.52 80.9 25.21C80.69 24.63 80.5 24.0799 80.36 23.6999C79.2 23.3799 78.16 23.08 77.12 22.83C76.89 22.78 76.47 22.8299 76.38 22.9799C75.87 23.8499 74.97 24.8199 75.07 25.6499C75.22 26.8699 75.27 27.9899 74.82 29.1799C74.68 29.1499 74.47 29.11 74.18 29.05C74.18 29.45 74.18 29.8 74.18 29.85C73.38 29.85 72.68 29.81 72 29.88C71.81 29.9 71.6 30.2399 71.5 30.4799C71.46 30.5599 71.68 30.84 71.84 30.91C73.71 31.78 74.66 33.08 73.95 35.21C73.91 35.34 73.99 35.5099 74.02 35.6799C74.39 35.6299 74.9 35.45 74.98 35.57C75.83 36.77 76.45 35.8099 76.64 35.2299C77.05 34.0199 78 33.68 78.97 33.21C79.54 32.93 80.01 32.43 80.49 31.99C80.64 31.85 80.81 31.46 80.74 31.38C80.19 30.75 80.65 30.3099 80.89 29.7599C81.03 29.4299 80.83 28.9499 80.79 28.5399ZM33.88 57.1399C32.72 58.5999 32.86 59.7699 34.34 61.3099C34.96 61.9499 35.84 61.7299 36.07 60.8399C36.21 60.3199 36.09 59.44 36.36 59.32C37.51 58.79 36.62 58.3599 36.46 57.7899C36.12 58.0099 35.86 58.17 35.58 58.35C35.05 57.95 34.49 57.57 33.88 57.1399ZM68.68 28.3699C69.55 28.4699 70.17 28.7299 70.62 28.5599C71.47 28.2299 72.22 27.6499 73.01 27.1799C73.82 26.6999 73.51 26.2999 73 26.0099C73.21 25.5199 73.41 25.08 73.64 24.55C73.25 24.49 73.05 24.4499 72.85 24.4299C70.89 24.2299 70.77 24.3699 71.02 26.3399C71.05 26.5599 70.88 26.81 70.83 26.96C70.2 26.64 69.68 26.37 69.16 26.1C69.02 26.19 68.88 26.2799 68.74 26.3699C69.78 26.9399 69.5 27.5299 68.68 28.3699ZM71.56 49.83C71.86 49.22 72.09 48.75 72.25 48.41C71.67 47.87 71.16 47.2999 70.55 46.8699C70.3 46.6899 69.54 46.7099 69.51 46.8099C69.03 48.2099 68.64 49.65 68.22 51.07C68.33 51.16 68.45 51.25 68.56 51.33C69.02 50.79 69.47 50.24 69.96 49.66C70.17 49.69 70.45 49.7299 70.73 49.7599C71.01 49.7999 71.29 49.81 71.56 49.83ZM70.79 32.8399C70.1 31.5799 70.11 31.6 69.11 32.11C68.11 32.6199 67.95 33.12 69.07 33.66C69.09 33.67 69.07 33.7399 69.08 33.7799C69.74 35.5799 69.86 35.6299 71.66 35.0099C71.66 34.4999 71.66 33.9699 71.66 33.4499C71.66 32.9799 71.66 32.52 71.66 32.05C71.55 32.04 71.44 32.0199 71.33 32.0099C71.17 32.2699 71 32.5299 70.79 32.8399ZM33.98 35.13C36.39 33.73 38.08 30.35 37.15 28.07C36.69 29.16 36.33 29.99 35.88 31.0599C35.54 31.3699 34.74 31.8 34.42 32.47C34.06 33.2299 34.12 34.2 33.98 35.13ZM68.27 27.91C67.51 28.41 67.1 28.5999 66.79 28.8999C66.42 29.2499 65.79 29.9599 65.85 30.0399C66.28 30.5699 66.81 31.22 67.42 31.36C68.01 31.49 68.37 30.8999 68.01 30.1799C67.96 30.0799 68.24 29.8499 68.26 29.6799C68.29 29.1099 68.27 28.54 68.27 27.91ZM69.91 23.17C69.95 23.32 69.99 23.48 70.02 23.63C71.77 24.37 73.46 23.7399 73.62 22.0899C72.34 22.4699 71.13 22.82 69.91 23.17ZM64.78 25.16C63.91 25.85 63.7 27.23 64.39 27.89C64.51 28 65.03 27.94 65.09 27.82C65.34 27.32 65.49 26.76 65.68 26.22C65.41 25.91 65.13 25.57 64.78 25.16ZM63.11 30.0099C63.24 30.0699 63.36 30.13 63.49 30.19C63.66 29.83 63.98 29.46 63.97 29.1C63.96 28.57 63.72 28.0399 63.57 27.5099C63.37 27.5499 63.16 27.59 62.96 27.64C63.01 28.42 63.06 29.2199 63.11 30.0099ZM66.32 31.39C65.65 31.71 65.08 32.0799 65.63 32.9199C65.74 33.0899 66.26 33.23 66.39 33.13C67.09 32.57 66.92 31.97 66.32 31.39ZM67.56 24.67C67.56 24.7999 67.56 24.93 67.56 25.07C67.98 25.07 68.58 25.24 68.79 25.03C69.08 24.75 69.07 24.1699 69.25 23.4799C68.51 23.9999 68.04 24.33 67.56 24.67Z" fill="#C60606"/>
<path id="Vector_2" d="M47.73 102.36C52.26 99.8099 56.69 97.3199 61.11 94.8399C61.07 94.7399 61.02 94.6399 60.98 94.5399C60.54 94.7099 60.1 94.8599 59.67 95.0399C47.65 100.37 35.63 105.72 23.6 111.01C22.48 111.5 22.31 112.03 22.89 113.03C23.25 113.65 23.47 114.35 23.88 115.31C15.84 114.45 8.05 113.63 0 112.77C4.78 106.18 9.40001 99.8099 14.13 93.2799C14.74 94.5699 15.26 95.6899 15.84 96.9199C32.73 89.4199 49.51 81.9799 66.37 74.4999C66.62 74.8899 66.83 75.2199 67.03 75.5399C66.45 76.2099 65.9 76.8499 65.25 77.6099C65.01 77.5099 64.52 77.2899 63.9 77.0099C63.9 77.5699 63.9 77.9599 63.9 78.5799C65.04 78.5799 66.16 78.5799 67.28 78.5799C67.64 78.5799 68.01 78.5799 68.37 78.5499C68.85 78.5099 69.33 78.4399 69.82 78.3799C69.65 77.9499 69.49 77.5199 69.3 77.0199C70.47 76.9399 71.79 76.7199 73.08 76.8299C73.66 76.8799 74.19 77.5999 74.66 78.2099C77.18 77.2499 79.43 78.5399 81.78 79.5899C82.19 80.9599 82.73 81.2099 84.29 81.0599C85.78 80.9199 87.29 80.9399 88.79 80.9999C89.7 81.0299 90.27 81.5899 90.45 82.5199C90.61 83.3199 90.7 84.1699 91.07 84.8699C91.36 85.4099 92.03 85.7499 92.53 86.1699C92.75 85.6899 93.18 85.1999 93.15 84.7299C93.12 83.9299 92.73 83.1599 92.63 82.3499C92.57 81.8299 92.57 81.0999 92.87 80.7699C93.83 79.7299 94.9 78.7899 96.02 77.9299C96.38 77.6499 97.02 77.7299 97.53 77.6499C97.6 77.7899 97.66 77.9299 97.73 78.0799C98.55 77.2099 99.39 76.3599 100.2 75.4699C101.31 74.2499 102.87 74.4599 104.26 74.1599C104.41 74.1299 104.65 74.2899 104.79 74.4299C105.51 75.1199 106.23 75.8199 106.93 76.5399C108.78 78.4199 108.4 81.4299 106.15 82.7699C105.18 83.3499 104.22 84.0999 103.06 83.0499C102.91 82.9199 102.47 82.9499 102.26 83.0699C101.4 83.5599 100.57 84.1099 99.46 84.8099C101.08 85.6899 102.38 86.3899 103.85 87.1899C102.77 87.9399 101.84 88.5199 100.99 89.1999C99.73 90.1999 99.77 90.7199 100.99 91.7299C101.52 92.1699 102.37 92.3899 102.11 93.3999C101.84 94.4199 101.3 95.0899 100.23 95.4299C99.54 95.6499 98.73 96.1099 98.39 96.6999C97.84 97.6599 97.12 97.4999 96.31 97.4799C95.61 97.4599 94.89 97.4699 94.2 97.5899C93.29 97.7599 92.41 98.0499 91.41 98.3199C91.57 98.5799 91.7 98.7799 91.88 99.0799C90.62 98.8999 89.99 99.5199 89.45 100.53C89.18 101.03 88.46 101.34 87.89 101.62C86.69 102.21 85.45 102.73 84.23 103.29C84.63 104.09 83.83 106.19 82.93 106.65C82.82 106.71 82.7 106.75 82.59 106.79C80.18 107.74 80.05 108.04 81.1 110.55C79.39 111.49 77.66 112.43 75.94 113.38C75.97 113.52 76.01 113.67 76.04 113.81C79.03 115.07 82.35 114.4 85.4 115.19C76.24 117.06 55.12 109.95 47.73 102.36ZM97.75 85.8599C95.24 85.4099 90.46 89.7699 89.96 92.9899C90.99 92.2999 92.24 91.9099 92.6 91.1199C93.6 88.8999 94.8 87.0499 97.22 86.2399C97.35 86.1999 97.46 86.0699 97.75 85.8599ZM90.96 94.0299C90.9 93.8899 90.83 93.7499 90.77 93.6199C90.3 93.7699 89.84 93.9199 89.32 94.0899C89.31 93.8699 89.32 93.7499 89.29 93.6399C89.26 93.5199 89.19 93.3999 89.13 93.2799C86.32 94.9499 86.03 95.2299 85.91 96.6699C87.68 95.7399 89.32 94.8899 90.96 94.0299Z" fill="#211E1E"/>
<path id="Vector_3" d="M139.05 42.35C139.49 44.35 140.02 46.27 140.33 48.23C143.02 65.5 138.86 80.97 127.95 94.59C123.69 99.91 118.49 104.16 112.6 107.59C110.29 108.94 107.81 109.05 105.25 108.72C105.13 108.71 105.02 108.64 104.92 108.57C104.86 108.53 104.82 108.45 104.71 108.3C104.86 108.07 104.97 107.72 105.21 107.56C106.53 106.66 106.62 105.32 106.64 103.91C106.65 103.12 106.9 102.33 106.97 101.53C107 101.21 106.94 100.71 106.73 100.57C105.15 99.55 103.46 98.99 101.52 99.36C100.04 99.64 98.77 97.97 99.43 96.6C99.56 96.33 100.24 96.33 100.66 96.19C101.09 96.04 101.66 95.99 101.9 95.69C102.72 94.67 103.41 93.56 104.15 92.48C104.24 92.35 104.4 92.17 104.36 92.06C103.7 89.84 105.47 88.7 106.48 87.21C106.95 86.52 107.41 85.79 107.7 85.01C108.08 84.02 108.52 83.23 109.57 82.75C110.18 82.47 110.69 81.81 111.06 81.21C112.05 79.62 112.98 77.99 113.85 76.33C114.43 75.21 114.89 74.13 113.83 72.84C113.37 72.28 113.55 71.12 113.6 70.24C113.74 67.87 114.01 65.52 114.13 63.15C114.16 62.59 113.74 62.01 113.64 61.42C113.55 60.88 113.62 60.31 113.62 59.75C113.82 59.73 114.02 59.71 114.23 59.69C114.72 62.78 115.06 65.91 115.55 69.04C115.97 67.92 116.36 66.84 116.19 65.63C116.1 65 116.15 64.36 116.15 63.72C116.15 63.1 116.88 62.3 115.67 61.99C115.57 61.97 115.57 61.55 115.54 61.31C115.42 60.32 115.44 59.28 115.15 58.34C114.62 56.63 114.45 54.98 115.3 53.35C115.49 52.99 115.74 52.56 116.08 52.41C123.46 49.11 130.86 45.84 138.26 42.58C138.44 42.48 138.64 42.46 139.05 42.35Z" fill="#211E1E"/>
<path id="Vector_4" d="M83.77 67.07C84.75 66.52 85.42 65.8 86.3 66.88C86.64 67.31 87.26 67.51 87.62 67.93C87.91 68.26 88 68.77 88.15 69.21C88.16 69.24 87.76 69.49 87.68 69.44C87.3 69.18 86.84 68.92 86.65 68.54C86.24 67.72 85.7 67.28 84.76 67.33C84.51 67.34 84.25 67.2 83.77 67.07Z" fill="black"/>
<path id="Vector_5" d="M82.93 67.58C83.05 68.83 83.15 69.85 83.28 71.16C82.53 70.6 82 70.21 81.4 69.77C81.19 70.06 80.98 70.36 80.63 70.86C80.51 69.99 80.15 69.33 81.27 69.14C81.59 69.08 81.87 68.7 82.14 68.44C82.39 68.19 82.62 67.91 82.93 67.58Z" fill="black"/>
<path id="Vector_6" d="M74.0501 40.18C73.5801 40.13 73.1 40.2 72.78 40.01C72.3 39.71 71.92 39.23 71.53 38.81C71.5 38.78 71.6601 38.49 71.7701 38.45C71.9401 38.39 72.18 38.39 72.34 38.47C72.7 38.65 73.0701 38.85 73.3501 39.13C73.6301 39.43 73.8201 39.83 74.0501 40.18Z" fill="#C60606"/>
</g>
</svg>
