<svg width="19" height="18" viewBox="0 0 19 18" fill="none" xmlns="http://www.w3.org/2000/svg">
<path d="M9.5 6.75C8.90326 6.75 8.33097 6.98705 7.90901 7.40901C7.48705 7.83097 7.25 8.40326 7.25 9C7.25 9.59674 7.48705 10.169 7.90901 10.591C8.33097 11.0129 8.90326 11.25 9.5 11.25C10.0967 11.25 10.669 11.0129 11.091 10.591C11.5129 10.169 11.75 9.59674 11.75 9C11.75 8.40326 11.5129 7.83097 11.091 7.40901C10.669 6.98705 10.0967 6.75 9.5 6.75ZM9.5 12.75C8.50544 12.75 7.55161 12.3549 6.84835 11.6517C6.14509 10.9484 5.75 9.99456 5.75 9C5.75 8.00544 6.14509 7.05161 6.84835 6.34835C7.55161 5.64509 8.50544 5.25 9.5 5.25C10.4946 5.25 11.4484 5.64509 12.1517 6.34835C12.8549 7.05161 13.25 8.00544 13.25 9C13.25 9.99456 12.8549 10.9484 12.1517 11.6517C11.4484 12.3549 10.4946 12.75 9.5 12.75ZM9.5 3.375C5.75 3.375 2.5475 5.7075 1.25 9C2.5475 12.2925 5.75 14.625 9.5 14.625C13.25 14.625 16.4525 12.2925 17.75 9C16.4525 5.7075 13.25 3.375 9.5 3.375Z" fill="black"/>
</svg>
